# xmcd
#
# Track frame offsets: 
#        150
#        22580
#        34252
#        45844
#        63412
#        87806
#        98606
#        112443
#        124991
#        146282
#        162064
#        175443
#        190370
#        204870
#        224189
#
# Disc length: 3037 seconds
#
# Revision: 0
# Processed by: cddbd v1.5.1PL0 Copyright (c) Steve Scherf et al.
# Submitted via: ExactAudioCopy v0.95a5
#
DISCID=ce0bdb0f
DTITLE=Trespass - Live
DYEAR=2001
DGENRE=Country
TTITLE0=All You Ever Do Is Bring Me Down
TTITLE1=Act Naturally
TTITLE2=Stay Out Of My Arms
TTITLE3=Cold Cold Heart
TTITLE4=The Ballad Of John And Yoko
TTITLE5=I Wrote The Book
TTITLE6=I Need A Margarita
TTITLE7=You're Stronger Than Me
TTITLE8=Oh Lonesome Me
TTITLE9=Whisper
TTITLE10=Don't Think Twice
TTITLE11=We All Get Lucky Sometimes
TTITLE12=Old One Better
TTITLE13=She's Gone Gone Gone
TTITLE14=Trespass Art (Short Version)
EXTD=
EXTT0=
EXTT1=
EXTT2=
EXTT3=
EXTT4=
EXTT5=
EXTT6=
EXTT7=
EXTT8=
EXTT9=
EXTT10=
EXTT11=
EXTT12=
EXTT13=
EXTT14=
PLAYORDER=
